<?xml version="1.0" encoding="UTF-8" standalone="no"?>
<!-- Created with Inkscape (http://www.inkscape.org/)
    Copyright (C) 2015 Coos Baakman
-->

<svg
   xmlns:dc="http://purl.org/dc/elements/1.1/"
   xmlns:cc="http://creativecommons.org/ns#"
   xmlns:rdf="http://www.w3.org/1999/02/22-rdf-syntax-ns#"
   xmlns:svg="http://www.w3.org/2000/svg"
   xmlns="http://www.w3.org/2000/svg"
   xmlns:xlink="http://www.w3.org/1999/xlink"
   xmlns:sodipodi="http://sodipodi.sourceforge.net/DTD/sodipodi-0.dtd"
   xmlns:inkscape="http://www.inkscape.org/namespaces/inkscape"
   width="128"
   height="128"
   id="svg2"
   version="1.1"
   inkscape:version="0.47 r22583"
   sodipodi:docname="bluebg.svg"
   inkscape:export-filename="bluebg.png"
   inkscape:export-xdpi="90"
   inkscape:export-ydpi="90">
  <defs
     id="defs4">
    <inkscape:perspective
       sodipodi:type="inkscape:persp3d"
       inkscape:vp_x="0 : 526.18109 : 1"
       inkscape:vp_y="0 : 1000 : 0"
       inkscape:vp_z="744.09448 : 526.18109 : 1"
       inkscape:persp3d-origin="372.04724 : 350.78739 : 1"
       id="perspective10" />
  </defs>
  <sodipodi:namedview
     id="base"
     pagecolor="#505a9f"
     bordercolor="#666666"
     borderopacity="1.0"
     inkscape:pageopacity="1"
     inkscape:pageshadow="2"
     inkscape:zoom="1"
     inkscape:cx="86.266219"
     inkscape:cy="63.181089"
     inkscape:document-units="px"
     inkscape:current-layer="g3592"
     showgrid="false"
     inkscape:showpageshadow="false"
     inkscape:window-width="1152"
     inkscape:window-height="804"
     inkscape:window-x="-4"
     inkscape:window-y="-4"
     inkscape:window-maximized="1" />
  <metadata
     id="metadata7">
    <rdf:RDF>
      <cc:Work
         rdf:about="">
        <dc:format>image/svg+xml</dc:format>
        <dc:type
           rdf:resource="http://purl.org/dc/dcmitype/StillImage" />
        <dc:title></dc:title>
      </cc:Work>
    </rdf:RDF>
  </metadata>
  <g
     inkscape:label="Layer 1"
     inkscape:groupmode="layer"
     id="layer1"
     transform="translate(0,-924.36218)">
    <g
       id="g3592">
      <path
         sodipodi:nodetypes="ccccccccc"
         id="path3588"
         d="m 15.333334,931.02885 c 10.167504,7.91457 21.777984,12.2217 28.666666,28.33333 11.777925,3.67392 26.763142,7.21657 26.000001,25.66667 3.898892,2.00833 21.491936,16.40475 21.999999,27.99995 10.19009,2.2718 19.80435,15.0894 28.33334,25.6667 -6.06631,-10.5866 -7.81011,-33.3195 -22.666673,-28.6667 C 95.957722,997.11098 85.71953,981.68434 72,983.02885 c 2.708741,-24.10716 -8.82281,-25.92495 -24.333333,-28 1.814962,-12.18548 -10.164494,-18.44879 -32.333333,-24 z"
         style="fill:#273075;fill-opacity:0.43529412;stroke:none" />
      <path
         style="fill:#273075;fill-opacity:0.28846154;stroke:none"
         d="m 30.666667,997.02883 c 10.167504,7.91457 21.777984,12.22167 28.666666,28.33327 10.73709,4.0209 20.227486,10.9507 25.666667,27.3333 10.245896,6.3097 20.2142,12.897 22.33333,26.3334 10.19009,2.2718 19.80435,15.0894 28.33334,25.6666 -6.06631,-10.5865 -7.81011,-33.3194 -22.66667,-28.6666 -1.70895,-12.9179 -6.94714,-23.3445 -23.666667,-25.6667 C 87.042074,1026.255 78.510523,1023.1038 63,1021.0288 64.814962,1008.8433 52.835506,1002.58 30.666667,997.02883 z"
         id="path3597"
         sodipodi:nodetypes="ccccccccc" />
      <path
         style="fill:#273075;stroke:none;stroke-width:1px;stroke-linecap:butt;stroke-linejoin:miter;stroke-opacity:1;fill-opacity:0.25961539"
         d="M 3,92.333333 C 19.016309,81.48383 24.591459,96.764828 35,117.66667 25.833952,107.29286 18.072036,95.113733 3,92.333333 z"
         id="path3613"
         transform="translate(0,924.36218)"
         sodipodi:nodetypes="ccc" />
      <path
         sodipodi:nodetypes="ccc"
         id="path3615"
         d="m 77.333333,952.69551 c 16.016309,-10.8495 21.591459,4.4315 31.999997,25.33334 -9.16604,-10.37381 -16.927961,-22.55294 -31.999997,-25.33334 z"
         style="fill:#273075;fill-opacity:0.25961539;stroke:none" />
      <path
         transform="translate(0,924.36218)"
         style="fill:#273075;fill-opacity:0.25961537;stroke:none"
         d="m 16.333334,43.333333 c 8.410605,3.226425 15.927881,4.487525 19.931408,-1.981623 l -1.721478,7.249788 c 6.257779,4.571152 5.156252,11.80897 3.191994,16.380121 C 36.742973,59.55337 35.819587,54.097561 30.496129,50.401781 22.982511,50.27978 19.476541,46.951662 16.333334,43.333333 z"
         id="path3617"
         sodipodi:nodetypes="cccccc" />
    </g>
    <use
       x="0"
       y="0"
       xlink:href="#g3592"
       id="use3595"
       transform="translate(128,0)"
       width="128"
       height="128" />
    <use
       x="0"
       y="0"
       xlink:href="#g3592"
       id="use3599"
       transform="translate(-128,0)"
       width="128"
       height="128" />
    <use
       height="128"
       width="128"
       transform="translate(128,-128)"
       id="use3601"
       xlink:href="#g3592"
       y="0"
       x="0" />
    <use
       height="128"
       width="128"
       transform="translate(-128,-128)"
       id="use3603"
       xlink:href="#g3592"
       y="0"
       x="0" />
    <use
       x="0"
       y="0"
       xlink:href="#g3592"
       id="use3605"
       transform="translate(0,-128)"
       width="128"
       height="128" />
    <use
       x="0"
       y="0"
       xlink:href="#g3592"
       id="use3607"
       transform="translate(128,128)"
       width="128"
       height="128" />
    <use
       x="0"
       y="0"
       xlink:href="#g3592"
       id="use3609"
       transform="translate(-128,128)"
       width="128"
       height="128" />
    <use
       height="128"
       width="128"
       transform="translate(0,128)"
       id="use3611"
       xlink:href="#g3592"
       y="0"
       x="0" />
  </g>
</svg>
